<?xml version="1.0" encoding="UTF-8"?>
<!DOCTYPE svg PUBLIC "-//W3C//DTD SVG 1.1//EN" "http://www.w3.org/Graphics/SVG/1.1/DTD/svg11.dtd">
<!-- Creator: CorelDRAW -->
<svg xmlns="http://www.w3.org/2000/svg" xml:space="preserve" width="6.82666in" height="6.82666in" style="shape-rendering:geometricPrecision; text-rendering:geometricPrecision; image-rendering:optimizeQuality; fill-rule:evenodd; clip-rule:evenodd"
viewBox="0 0 6.82666 6.82666"
 xmlns:xlink="http://www.w3.org/1999/xlink">
 <defs>
  <style type="text/css">
   <![CDATA[
    .fil1 {fill:none}
    .fil0 {fill:black;fill-rule:nonzero}
   ]]>
  </style>
 </defs>
 <g id="Layer_x0020_1">
  <metadata id="CorelCorpID_0Corel-Layer"/>
  <g id="_174894248">
   <path id="_174900776" class="fil0" d="M0.854996 5.89551l0.0312559 -0.127445c0.0786929,-0.320803 0.106921,-0.713441 0.135531,-1.11153 0.0791614,-1.10133 0.161252,-2.24324 1.30473,-2.1611 0.564638,0.0405512 1.10379,0.412106 1.48082,0.883209 0.172654,0.21574 0.311539,0.452327 0.403441,0.687449 0.0928976,0.237677 0.138335,0.474764 0.122969,0.688768 -0.0173307,0.241346 -0.111409,0.453287 -0.300795,0.604854 -0.281921,0.225622 -0.790516,0.266327 -1.34144,0.310409 -0.257961,0.0206417 -0.525374,0.0420433 -0.778409,0.082878 -0.102094,0.0164764 -0.228244,0.047185 -0.364512,0.0803504 -0.202945,0.0493976 -0.427996,0.104181 -0.636087,0.127575l-0.075626 0.0085 0.018126 -0.0739173zm0.134587 -0.102445l-0.0128071 0.0522165c0.180866,-0.026185 0.372169,-0.072752 0.546807,-0.11526 0.138323,-0.0336654 0.266374,-0.0648386 0.372843,-0.0820197 0.260224,-0.0419961 0.52822,-0.0634449 0.786748,-0.0841299 0.534315,-0.0427559 1.02757,-0.0822323 1.28352,-0.287071 0.163933,-0.131201 0.245531,-0.316866 0.260795,-0.529437 0.0142126,-0.197925 -0.0285906,-0.419193 -0.115882,-0.642524 -0.0882913,-0.22589 -0.221583,-0.453016 -0.387189,-0.659945 -0.360244,-0.45013 -0.872429,-0.804929 -1.4054,-0.843209 -1.03738,-0.0745157 -1.11557,1.01324 -1.19098,2.06235 -0.0288976,0.402071 -0.0574094,0.798638 -0.138453,1.12903z"/>
   <path id="_174899936" class="fil0" d="M3.76985 3.36253c-0.0279567,0.00920079 -0.0431614,0.0393346 -0.0339606,0.0672913 0.00920079,0.0279567 0.0393346,0.0431614 0.0672913,0.0339606 0.249535,-0.0826063 0.532461,-0.0381142 0.797059,0.00349213 0.30022,0.0472087 0.578224,0.0909213 0.784772,-0.046878 0.0124449,-0.00830709 0.0152205,-0.010126 0.0186772,-0.0123898l9.44882e-005 0.000145669 7.48031e-005 -4.72441e-005 3.14961e-005 4.72441e-005c0.000692913,-0.000456693 0.00137402,-0.000929134 0.00203937,-0.00140945 0.106382,-0.0698228 0.257717,-0.170618 0.166819,-0.331433 -0.0625945,-0.11076 -0.25048,-0.136594 -0.452476,-0.135535 0.0334488,-0.0108346 0.0667205,-0.0221614 0.0997362,-0.0340236 0.204134,-0.0733386 0.397724,-0.166689 0.561244,-0.286453 0.00174409,-0.00127953 0.00752362,-0.00542913 0.0160748,-0.0116181 0.0905472,-0.0654921 0.221535,-0.160236 0.162043,-0.286378 -0.0638937,-0.135504 -0.329043,-0.0836457 -0.562909,-0.0379055 -0.0799016,0.015626 -0.155799,0.0304764 -0.213055,0.0363228l-0.0311378 0.0031811c0.0252441,-0.0221102 0.0609055,-0.0538386 0.0992795,-0.0986811 0.24513,-0.286425 0.677189,-0.79128 0.421059,-1.04741 -0.000956693,-0.000956693 -0.00317323,-0.00299213 -0.00558268,-0.00518504 -0.00219291,-0.00240945 -0.00422835,-0.00462598 -0.00518504,-0.00558268 -0.25613,-0.25613 -0.760984,0.175929 -1.04741,0.421059 -0.0448425,0.038374 -0.0765709,0.0740394 -0.0986811,0.0992795l0.0031811 -0.0311378c0.00584646,-0.0572559 0.0206969,-0.133154 0.0363228,-0.213055 0.0457402,-0.233866 0.0975984,-0.499016 -0.0379055,-0.562909 -0.126142,-0.0594921 -0.220886,0.0714961 -0.286378,0.162043 -0.00618898,0.00855118 -0.0103386,0.0143307 -0.0116181,0.0160748 -0.119764,0.16352 -0.213114,0.357106 -0.286453,0.56124 -0.0118622,0.0330157 -0.023189,0.0662874 -0.0340236,0.0997362 0.00105906,-0.202 -0.0247756,-0.389878 -0.135535,-0.452472 -0.161894,-0.0915118 -0.26298,0.0625039 -0.33285,0.168976 -0.0085748,0.013063 -0.00741339,0.0115354 -0.0122362,0.0187598 -0.137799,0.206543 -0.0940866,0.484551 -0.046878,0.784776 0.0416024,0.264594 0.0860906,0.547524 0.00348819,0.797055 -0.00920079,0.0279567 0.00600394,0.0580906 0.0339606,0.0672913 0.0279567,0.00920079 0.0580906,-0.00600394 0.0672913,-0.0339606 0.0904291,-0.273173 0.0438346,-0.569504 0.000259843,-0.846638 -0.043874,-0.279035 -0.0845039,-0.537417 0.0302087,-0.709358l0.0130709 -0.0195945c0.047563,-0.0724803 0.116378,-0.177331 0.191598,-0.134811 0.109106,0.0616614 0.0844252,0.406677 0.0661732,0.661839 -0.00629528,0.088 -0.0118701,0.165965 -0.0107677,0.223791 -0.00172835,0.0264055 0.0164134,0.0506142 0.0430748,0.0557835 0.0289134,0.0056063 0.0569094,-0.0132874 0.0625157,-0.0422008l-0.0523583 -0.0101575 0.0522913 0.01c0.0386772,-0.199402 0.0902677,-0.406874 0.160717,-0.60298 0.0700039,-0.194846 0.158787,-0.379197 0.272287,-0.534161 0.00888583,-0.012126 0.010063,-0.0137677 0.0120354,-0.0164921 0.0443622,-0.0613346 0.108539,-0.150059 0.154709,-0.128287 0.0604409,0.0285 0.0170276,0.250469 -0.0212598,0.44624 -0.0159213,0.0814016 -0.0310472,0.158724 -0.0375748,0.222638l-0.0120827 0.118272c-0.00420866,0.023622 0.00801181,0.0479449 0.0309331,0.0580906l0.0215866 -0.0487677 -0.0214567 0.048748c0.0480866,0.0212835 0.132492,-0.0509528 0.25152,-0.152815 0.259283,-0.221902 0.716291,-0.613012 0.902827,-0.426476l0.00175984 0.00177559c0.00158661,0.00192126 0.00332283,0.00375197 0.00521654,0.00548031l0.0359409 -0.0394055 -0.0358346 0.039374 0.000716535 0.000653543c0.000444882,0.000405512 0.000940945,0.000862205 0.0029685,0.00288976 0.186535,0.186535 -0.204575,0.643543 -0.426476,0.902827 -0.0740591,0.0865394 -0.132445,0.154772 -0.150626,0.204055 -0.00516929,0.00923622 -0.00765354,0.0200984 -0.00649606,0.0314291 0.00299213,0.0292992 0.0291772,0.050626 0.0584764,0.0476339l-0.00542126 -0.0530551 0.00541732 0.0529173 0.122177 -0.0124803c0.0639134,-0.00652756 0.141236,-0.0216535 0.222638,-0.0375748 0.195772,-0.0382874 0.41774,-0.0817008 0.44624,-0.0212598 0.0217717,0.0461693 -0.0669528,0.110346 -0.128287,0.154709 -0.00272441,0.00197244 -0.00436614,0.00314961 -0.0164921,0.0120354 -0.154965,0.1135 -0.339315,0.202283 -0.534165,0.272287 -0.195126,0.0700984 -0.401512,0.12152 -0.599992,0.160134 -0.0255669,0.0033622 -0.0456102,0.0248976 -0.0462992,0.0514882 -0.00076378,0.0294449 0.0224843,0.053937 0.0519291,0.0547008l0.00138583 -0.053315 -0.00124803 0.053126c0.0582677,0.00151181 0.138075,-0.00419685 0.228465,-0.0106614 0.255161,-0.018252 0.600177,-0.0429331 0.661839,0.0661732 0.042122,0.0745236 -0.0603898,0.142756 -0.13278,0.190268 -0.000716535,0.000425197 -0.0014252,0.000862205 -0.00212598,0.00132283l0.0292717 0.0445827 -0.0291654 -0.044374 -0.0196063 0.0128701c-0.171941,0.114713 -0.430323,0.0740827 -0.709354,0.0302087 -0.27713,-0.0435787 -0.573465,-0.0901772 -0.846642,0.000255906z"/>
  </g>
 </g>
 <rect class="fil1" width="6.82666" height="6.82666"/>
</svg>
